<svg width="97" height="29" viewBox="0 0 97 29" fill="none" xmlns="http://www.w3.org/2000/svg">
    <path d="M31.184 2.512V3.232C30.416 3.256 29.84 3.352 29.456 3.52C29.072 3.664 28.808 3.952 28.664 4.384C28.544 4.792 28.484 5.44 28.484 6.328V24.184C28.484 25.048 28.544 25.696 28.664 26.128C28.808 26.56 29.072 26.848 29.456 26.992C29.84 27.136 30.416 27.232 31.184 27.28V28C30.512 27.952 29.66 27.928 28.628 27.928C27.62 27.904 26.588 27.892 25.532 27.892C24.38 27.892 23.3 27.904 22.292 27.928C21.284 27.928 20.468 27.952 19.844 28V27.28C20.66 27.232 21.272 27.136 21.68 26.992C22.112 26.848 22.4 26.56 22.544 26.128C22.688 25.696 22.76 25.048 22.76 24.184V4.708H23.012L14.084 28.036H13.508L3.788 4.852V22.096C3.788 23.416 3.86 24.436 4.004 25.156C4.148 25.852 4.46 26.356 4.94 26.668C5.444 26.956 6.224 27.16 7.28 27.28V28C6.824 27.952 6.224 27.928 5.48 27.928C4.736 27.904 4.04 27.892 3.392 27.892C2.84 27.892 2.276 27.904 1.7 27.928C1.124 27.928 0.644 27.952 0.26 28V27.28C1.028 27.16 1.604 26.956 1.988 26.668C2.372 26.38 2.624 25.912 2.744 25.264C2.888 24.592 2.96 23.68 2.96 22.528V6.328C2.96 5.44 2.888 4.792 2.744 4.384C2.624 3.952 2.36 3.664 1.952 3.52C1.568 3.352 1.004 3.256 0.26 3.232V2.512C0.644 2.536 1.124 2.56 1.7 2.584C2.276 2.608 2.84 2.62 3.392 2.62C4.424 2.62 5.432 2.608 6.416 2.584C7.424 2.56 8.312 2.536 9.08 2.512L16.64 20.764L15.74 21.592L22.976 2.62C23.384 2.62 23.804 2.62 24.236 2.62C24.668 2.62 25.1 2.62 25.532 2.62C26.588 2.62 27.62 2.608 28.628 2.584C29.66 2.56 30.512 2.536 31.184 2.512ZM37.9073 0.0999987C38.9153 0.0999987 39.7073 0.351999 40.2833 0.856C40.8833 1.336 41.1833 2.008 41.1833 2.872C41.1833 3.736 40.8833 4.42 40.2833 4.924C39.7073 5.404 38.9153 5.644 37.9073 5.644C36.8993 5.644 36.0953 5.404 35.4953 4.924C34.9193 4.42 34.6313 3.736 34.6313 2.872C34.6313 2.008 34.9193 1.336 35.4953 0.856C36.0953 0.351999 36.8993 0.0999987 37.9073 0.0999987ZM40.7153 8.992V24.652C40.7153 25.66 40.8833 26.344 41.2193 26.704C41.5793 27.064 42.1793 27.244 43.0193 27.244V28C42.5873 27.976 41.9153 27.952 41.0033 27.928C40.0913 27.88 39.1673 27.856 38.2313 27.856C37.2953 27.856 36.3473 27.88 35.3873 27.928C34.4273 27.952 33.7073 27.976 33.2273 28V27.244C34.0673 27.244 34.6553 27.064 34.9913 26.704C35.3513 26.344 35.5313 25.66 35.5313 24.652V13.312C35.5313 12.232 35.3633 11.44 35.0273 10.936C34.7153 10.408 34.1153 10.144 33.2273 10.144V9.388C33.9953 9.46 34.7393 9.496 35.4593 9.496C36.4673 9.496 37.4033 9.46 38.2673 9.388C39.1553 9.292 39.9713 9.16 40.7153 8.992ZM53.9428 2.044C55.3588 2.044 56.4508 2.2 57.2188 2.512C57.9868 2.8 58.6468 3.112 59.1988 3.448C59.4868 3.616 59.7148 3.748 59.8828 3.844C60.0748 3.916 60.2548 3.952 60.4228 3.952C60.6628 3.952 60.8308 3.82 60.9268 3.556C61.0468 3.292 61.1428 2.896 61.2148 2.368H62.0428C62.0188 2.824 61.9828 3.376 61.9348 4.024C61.9108 4.648 61.8867 5.476 61.8628 6.508C61.8628 7.54 61.8628 8.896 61.8628 10.576H61.0348C60.9388 9.328 60.6508 8.116 60.1708 6.94C59.6908 5.764 59.0068 4.804 58.1188 4.06C57.2548 3.292 56.1868 2.908 54.9148 2.908C53.7628 2.908 52.8148 3.232 52.0708 3.88C51.3268 4.528 50.9548 5.428 50.9548 6.58C50.9548 7.54 51.1948 8.368 51.6748 9.064C52.1548 9.736 52.8508 10.396 53.7628 11.044C54.6988 11.692 55.8268 12.472 57.1468 13.384C58.2988 14.128 59.3308 14.872 60.2428 15.616C61.1548 16.36 61.8868 17.2 62.4388 18.136C62.9908 19.072 63.2668 20.188 63.2668 21.484C63.2668 23.068 62.8468 24.376 62.0068 25.408C61.1908 26.44 60.1108 27.22 58.7668 27.748C57.4228 28.252 55.9468 28.504 54.3388 28.504C52.8508 28.504 51.6628 28.36 50.7748 28.072C49.8868 27.784 49.1428 27.484 48.5428 27.172C48.0148 26.836 47.6068 26.668 47.3188 26.668C47.0788 26.668 46.8988 26.8 46.7788 27.064C46.6828 27.328 46.5988 27.724 46.5268 28.252H45.6988C45.7468 27.676 45.7708 27.004 45.7708 26.236C45.7948 25.468 45.8068 24.472 45.8068 23.248C45.8308 22 45.8428 20.428 45.8428 18.532H46.6708C46.7668 20.116 47.0308 21.604 47.4628 22.996C47.9188 24.364 48.6028 25.468 49.5148 26.308C50.4508 27.148 51.6868 27.568 53.2227 27.568C54.0628 27.568 54.8068 27.424 55.4548 27.136C56.1268 26.824 56.6668 26.368 57.0748 25.768C57.4828 25.168 57.6868 24.424 57.6868 23.536C57.6868 22.528 57.4468 21.652 56.9668 20.908C56.5108 20.164 55.8748 19.468 55.0588 18.82C54.2668 18.172 53.3428 17.512 52.2868 16.84C51.1588 16.096 50.1028 15.352 49.1188 14.608C48.1348 13.864 47.3428 13.012 46.7428 12.052C46.1668 11.092 45.8788 9.952 45.8788 8.632C45.8788 7.12 46.2508 5.884 46.9948 4.924C47.7628 3.94 48.7588 3.22 49.9828 2.764C51.2308 2.284 52.5508 2.044 53.9428 2.044ZM72.9142 3.484V9.388H77.1622V10.108H72.9142V24.652C72.9142 25.372 73.0462 25.888 73.3102 26.2C73.5742 26.488 73.9702 26.632 74.4982 26.632C74.9302 26.632 75.3622 26.476 75.7942 26.164C76.2262 25.828 76.6102 25.264 76.9462 24.472L77.5582 24.796C77.1742 25.876 76.5862 26.764 75.7942 27.46C75.0262 28.156 73.9702 28.504 72.6262 28.504C71.8342 28.504 71.1382 28.396 70.5382 28.18C69.9382 27.988 69.4342 27.688 69.0262 27.28C68.4982 26.752 68.1502 26.104 67.9822 25.336C67.8142 24.544 67.7302 23.524 67.7302 22.276V10.108H64.7062V9.388H67.7302V4.636C68.7382 4.636 69.6622 4.552 70.5022 4.384C71.3662 4.192 72.1702 3.892 72.9142 3.484ZM87.4098 8.884C89.1618 8.884 90.6978 9.208 92.0178 9.856C93.3378 10.504 94.3698 11.548 95.1138 12.988C95.8578 14.428 96.2298 16.336 96.2298 18.712C96.2298 21.088 95.8578 22.996 95.1138 24.436C94.3698 25.852 93.3378 26.884 92.0178 27.532C90.6978 28.18 89.1618 28.504 87.4098 28.504C85.7058 28.504 84.1818 28.18 82.8378 27.532C81.5178 26.884 80.4738 25.852 79.7058 24.436C78.9618 22.996 78.5898 21.088 78.5898 18.712C78.5898 16.336 78.9618 14.428 79.7058 12.988C80.4738 11.548 81.5178 10.504 82.8378 9.856C84.1818 9.208 85.7058 8.884 87.4098 8.884ZM87.4098 9.604C86.4498 9.604 85.6458 10.324 84.9978 11.764C84.3498 13.18 84.0258 15.496 84.0258 18.712C84.0258 21.928 84.3498 24.244 84.9978 25.66C85.6458 27.076 86.4498 27.784 87.4098 27.784C88.3938 27.784 89.1978 27.076 89.8218 25.66C90.4698 24.244 90.7938 21.928 90.7938 18.712C90.7938 15.496 90.4698 13.18 89.8218 11.764C89.1978 10.324 88.3938 9.604 87.4098 9.604Z" fill="#121212"/>
</svg>