<svg width="512" height="512" viewBox="0 0 32 27" fill="none" xmlns="http://www.w3.org/2000/svg"><path d="M31.184 0.512V1.232C30.416 1.256 29.84 1.352 29.456 1.52C29.072 1.664 28.808 1.952 28.664 2.384C28.544 2.792 28.484 3.44 28.484 4.328V22.184C28.484 23.048 28.544 23.696 28.664 24.128C28.808 24.56 29.072 24.848 29.456 24.992C29.84 25.136 30.416 25.232 31.184 25.28V26C30.512 25.952 29.66 25.928 28.628 25.928C27.62 25.904 26.588 25.892 25.532 25.892C24.38 25.892 23.3 25.904 22.292 25.928C21.284 25.928 20.468 25.952 19.844 26V25.28C20.66 25.232 21.272 25.136 21.68 24.992C22.112 24.848 22.4 24.56 22.544 24.128C22.688 23.696 22.76 23.048 22.76 22.184V2.708H23.012L14.084 26.036H13.508L3.788 2.852V20.096C3.788 21.416 3.86 22.436 4.004 23.156C4.148 23.852 4.46 24.356 4.94 24.668C5.444 24.956 6.224 25.16 7.28 25.28V26C6.824 25.952 6.224 25.928 5.48 25.928C4.736 25.904 4.04 25.892 3.392 25.892C2.84 25.892 2.276 25.904 1.7 25.928C1.124 25.928 0.644 25.952 0.26 26V25.28C1.028 25.16 1.604 24.956 1.988 24.668C2.372 24.38 2.624 23.912 2.744 23.264C2.888 22.592 2.96 21.68 2.96 20.528V4.328C2.96 3.44 2.888 2.792 2.744 2.384C2.624 1.952 2.36 1.664 1.952 1.52C1.568 1.352 1.004 1.256 0.26 1.232V0.512C0.644 0.536 1.124 0.559999 1.7 0.583999C2.276 0.607999 2.84 0.619998 3.392 0.619998C4.424 0.619998 5.432 0.607999 6.416 0.583999C7.424 0.559999 8.312 0.536 9.08 0.512L16.64 18.764L15.74 19.592L22.976 0.619998C23.384 0.619998 23.804 0.619998 24.236 0.619998C24.668 0.619998 25.1 0.619998 25.532 0.619998C26.588 0.619998 27.62 0.607999 28.628 0.583999C29.66 0.559999 30.512 0.536 31.184 0.512Z" fill="#121212"/></svg>